<mxfile modified="2019-10-26T07:35:57.554Z" host="www.draw.io" agent="Mozilla/5.0 (Macintosh; Intel Mac OS X 10_15) AppleWebKit/605.1.15 (KHTML, like Gecko) Version/13.0.2 Safari/605.1.15" etag="MuP4WP1xC3ycoD3_NfRs" version="12.1.7" type="github" pages="1">
  <diagram id="f106602c-feb2-e66a-4537-3a34d633f6aa" name="Page-1">
    <mxGraphModel dx="1587" dy="909" grid="1" gridSize="10" guides="1" tooltips="1" connect="1" arrows="1" fold="1" page="1" pageScale="1" pageWidth="1169" pageHeight="827" background="#ffffff" math="0" shadow="0">
      <root>
        <mxCell id="0"/>
        <mxCell id="1" parent="0"/>
        <mxCell id="3G7S71GiZPw67ylA6irI-1091" style="edgeStyle=orthogonalEdgeStyle;rounded=0;orthogonalLoop=1;jettySize=auto;html=1;strokeColor=#4284F3;strokeWidth=2;" edge="1" parent="1" source="14" target="3G7S71GiZPw67ylA6irI-1089">
          <mxGeometry relative="1" as="geometry"/>
        </mxCell>
        <mxCell id="14" value="&lt;b&gt;Google &lt;/b&gt;Cloud Platform" style="fillColor=#F6F6F6;strokeColor=none;shadow=0;gradientColor=none;fontSize=14;align=left;spacing=10;fontColor=#717171;9E9E9E;verticalAlign=top;spacingTop=-4;fontStyle=0;spacingLeft=40;html=1;" parent="1" vertex="1">
          <mxGeometry x="390" y="100" width="1080" height="630" as="geometry"/>
        </mxCell>
        <mxCell id="3G7S71GiZPw67ylA6irI-1142" value="&lt;br&gt;" style="points=[[0,0,0],[0.25,0,0],[0.5,0,0],[0.75,0,0],[1,0,0],[1,0.25,0],[1,0.5,0],[1,0.75,0],[1,1,0],[0.75,1,0],[0.5,1,0],[0.25,1,0],[0,1,0],[0,0.75,0],[0,0.5,0],[0,0.25,0]];rounded=1;absoluteArcSize=1;arcSize=2;html=1;strokeColor=none;gradientColor=none;shadow=0;dashed=0;fontSize=12;fontColor=#9E9E9E;align=left;verticalAlign=top;spacing=10;spacingTop=-4;fillColor=#F3E5F5;" vertex="1" parent="14">
          <mxGeometry x="590" y="70" width="490" height="530" as="geometry"/>
        </mxCell>
        <mxCell id="3G7S71GiZPw67ylA6irI-1141" value="" style="points=[[0,0,0],[0.25,0,0],[0.5,0,0],[0.75,0,0],[1,0,0],[1,0.25,0],[1,0.5,0],[1,0.75,0],[1,1,0],[0.75,1,0],[0.5,1,0],[0.25,1,0],[0,1,0],[0,0.75,0],[0,0.5,0],[0,0.25,0]];rounded=1;absoluteArcSize=1;arcSize=2;html=1;strokeColor=none;gradientColor=none;shadow=0;dashed=0;fontSize=12;fontColor=#9E9E9E;align=left;verticalAlign=top;spacing=10;spacingTop=-4;fillColor=#F3E5F5;" vertex="1" parent="14">
          <mxGeometry x="170" y="70" width="410" height="530" as="geometry"/>
        </mxCell>
        <mxCell id="15" value="" style="shape=mxgraph.gcp2.google_cloud_platform;fillColor=#F6F6F6;strokeColor=none;shadow=0;gradientColor=none;" parent="14" vertex="1">
          <mxGeometry width="23" height="20" relative="1" as="geometry">
            <mxPoint x="20" y="10" as="offset"/>
          </mxGeometry>
        </mxCell>
        <mxCell id="3G7S71GiZPw67ylA6irI-1002" value="" style="strokeColor=#dddddd;fillColor=#ffffff;shadow=1;strokeWidth=1;rounded=1;absoluteArcSize=1;arcSize=2;" vertex="1" parent="14">
          <mxGeometry x="52" y="191" width="108" height="59" as="geometry"/>
        </mxCell>
        <mxCell id="3G7S71GiZPw67ylA6irI-1003" value="Cloud &#xa;CDN" style="dashed=0;connectable=0;html=1;fillColor=#5184F3;strokeColor=none;shape=mxgraph.gcp2.hexIcon;prIcon=cloud_cdn;part=1;labelPosition=right;verticalLabelPosition=middle;align=left;verticalAlign=middle;spacingLeft=5;fontColor=#999999;fontSize=12;" vertex="1" parent="3G7S71GiZPw67ylA6irI-1002">
          <mxGeometry y="0.5" width="44" height="39" relative="1" as="geometry">
            <mxPoint x="5" y="-19.5" as="offset"/>
          </mxGeometry>
        </mxCell>
        <mxCell id="3G7S71GiZPw67ylA6irI-1072" style="edgeStyle=orthogonalEdgeStyle;rounded=0;orthogonalLoop=1;jettySize=auto;html=1;entryX=0;entryY=0.5;entryDx=0;entryDy=0;strokeColor=#4284F3;strokeWidth=2;" edge="1" parent="14" source="3G7S71GiZPw67ylA6irI-1036" target="3G7S71GiZPw67ylA6irI-1051">
          <mxGeometry relative="1" as="geometry"/>
        </mxCell>
        <mxCell id="3G7S71GiZPw67ylA6irI-1075" style="edgeStyle=orthogonalEdgeStyle;rounded=0;orthogonalLoop=1;jettySize=auto;html=1;entryX=0.25;entryY=0;entryDx=0;entryDy=0;strokeColor=#FF6666;strokeWidth=2;" edge="1" parent="14" source="3G7S71GiZPw67ylA6irI-1036" target="3G7S71GiZPw67ylA6irI-1069">
          <mxGeometry relative="1" as="geometry"/>
        </mxCell>
        <mxCell id="3G7S71GiZPw67ylA6irI-1036" value="" style="shape=mxgraph.gcp2.doubleRect;strokeColor=#dddddd;fillColor=#ffffff;shadow=1;strokeWidth=1;" vertex="1" parent="14">
          <mxGeometry x="610" y="254" width="178" height="68" as="geometry"/>
        </mxCell>
        <mxCell id="3G7S71GiZPw67ylA6irI-1037" value="&lt;font color=&quot;#000000&quot;&gt;&lt;span&gt;Payment System App&lt;/span&gt;&lt;/font&gt;&lt;br&gt;Kubernetes Engine" style="dashed=0;connectable=0;html=1;fillColor=#5184F3;strokeColor=none;shape=mxgraph.gcp2.hexIcon;prIcon=container_engine;part=1;labelPosition=right;verticalLabelPosition=middle;align=left;verticalAlign=middle;spacingLeft=5;fontColor=#999999;fontSize=12;" vertex="1" parent="3G7S71GiZPw67ylA6irI-1036">
          <mxGeometry y="0.5" width="44" height="39" relative="1" as="geometry">
            <mxPoint x="5" y="-19.5" as="offset"/>
          </mxGeometry>
        </mxCell>
        <mxCell id="3G7S71GiZPw67ylA6irI-1051" value="" style="strokeColor=#dddddd;fillColor=#ffffff;shadow=1;strokeWidth=1;rounded=1;absoluteArcSize=1;arcSize=2;" vertex="1" parent="14">
          <mxGeometry x="900" y="374" width="110" height="60" as="geometry"/>
        </mxCell>
        <mxCell id="3G7S71GiZPw67ylA6irI-1052" value="Cloud&#xa;Storage" style="dashed=0;connectable=0;html=1;fillColor=#5184F3;strokeColor=none;shape=mxgraph.gcp2.hexIcon;prIcon=cloud_storage;part=1;labelPosition=right;verticalLabelPosition=middle;align=left;verticalAlign=middle;spacingLeft=5;fontColor=#999999;fontSize=12;" vertex="1" parent="3G7S71GiZPw67ylA6irI-1051">
          <mxGeometry y="0.5" width="44" height="39" relative="1" as="geometry">
            <mxPoint x="5" y="-19.5" as="offset"/>
          </mxGeometry>
        </mxCell>
        <mxCell id="3G7S71GiZPw67ylA6irI-1057" style="edgeStyle=orthogonalEdgeStyle;rounded=0;orthogonalLoop=1;jettySize=auto;html=1;entryX=0;entryY=0.5;entryDx=0;entryDy=0;strokeColor=#4284F3;strokeWidth=2;" edge="1" parent="14" source="3G7S71GiZPw67ylA6irI-1053" target="3G7S71GiZPw67ylA6irI-1055">
          <mxGeometry relative="1" as="geometry"/>
        </mxCell>
        <mxCell id="3G7S71GiZPw67ylA6irI-1058" style="edgeStyle=orthogonalEdgeStyle;rounded=0;orthogonalLoop=1;jettySize=auto;html=1;entryX=0;entryY=0.5;entryDx=0;entryDy=0;strokeColor=#4284F3;strokeWidth=2;" edge="1" parent="14" source="3G7S71GiZPw67ylA6irI-1053" target="3G7S71GiZPw67ylA6irI-1051">
          <mxGeometry relative="1" as="geometry"/>
        </mxCell>
        <mxCell id="3G7S71GiZPw67ylA6irI-1053" value="" style="shape=mxgraph.gcp2.doubleRect;strokeColor=#dddddd;fillColor=#ffffff;shadow=1;strokeWidth=1;" vertex="1" parent="14">
          <mxGeometry x="610" y="170" width="178" height="68" as="geometry"/>
        </mxCell>
        <mxCell id="3G7S71GiZPw67ylA6irI-1054" value="&lt;font color=&quot;#000000&quot;&gt;&lt;span&gt;CRM System App&lt;/span&gt;&lt;/font&gt;&lt;br&gt;Kubernetes Engine" style="dashed=0;connectable=0;html=1;fillColor=#5184F3;strokeColor=none;shape=mxgraph.gcp2.hexIcon;prIcon=container_engine;part=1;labelPosition=right;verticalLabelPosition=middle;align=left;verticalAlign=middle;spacingLeft=5;fontColor=#999999;fontSize=12;" vertex="1" parent="3G7S71GiZPw67ylA6irI-1053">
          <mxGeometry y="0.5" width="44" height="39" relative="1" as="geometry">
            <mxPoint x="5" y="-19.5" as="offset"/>
          </mxGeometry>
        </mxCell>
        <mxCell id="3G7S71GiZPw67ylA6irI-1055" value="" style="strokeColor=#dddddd;fillColor=#ffffff;shadow=1;strokeWidth=1;rounded=1;absoluteArcSize=1;arcSize=2;" vertex="1" parent="14">
          <mxGeometry x="880" y="174" width="170" height="60" as="geometry"/>
        </mxCell>
        <mxCell id="3G7S71GiZPw67ylA6irI-1056" value="&lt;font color=&quot;#000000&quot;&gt;&lt;span&gt;All system shared DB&lt;/span&gt;&lt;/font&gt;&lt;br&gt;Cloud Spanner" style="dashed=0;connectable=0;html=1;fillColor=#5184F3;strokeColor=none;shape=mxgraph.gcp2.hexIcon;prIcon=cloud_spanner;part=1;labelPosition=right;verticalLabelPosition=middle;align=left;verticalAlign=middle;spacingLeft=5;fontColor=#999999;fontSize=12;" vertex="1" parent="3G7S71GiZPw67ylA6irI-1055">
          <mxGeometry y="0.5" width="44" height="39" relative="1" as="geometry">
            <mxPoint x="5" y="-19.5" as="offset"/>
          </mxGeometry>
        </mxCell>
        <mxCell id="3G7S71GiZPw67ylA6irI-1068" style="edgeStyle=orthogonalEdgeStyle;rounded=0;orthogonalLoop=1;jettySize=auto;html=1;entryX=0;entryY=0.5;entryDx=0;entryDy=0;strokeColor=#4284F3;strokeWidth=2;" edge="1" parent="14" source="3G7S71GiZPw67ylA6irI-1065" target="3G7S71GiZPw67ylA6irI-1051">
          <mxGeometry relative="1" as="geometry"/>
        </mxCell>
        <mxCell id="3G7S71GiZPw67ylA6irI-1065" value="" style="shape=mxgraph.gcp2.doubleRect;strokeColor=#dddddd;fillColor=#ffffff;shadow=1;strokeWidth=1;" vertex="1" parent="14">
          <mxGeometry x="610" y="436" width="178" height="68" as="geometry"/>
        </mxCell>
        <mxCell id="3G7S71GiZPw67ylA6irI-1066" value="&lt;font color=&quot;#000000&quot;&gt;&lt;span&gt;Customer Service App&lt;/span&gt;&lt;/font&gt;&lt;br&gt;Kubernetes Engine" style="dashed=0;connectable=0;html=1;fillColor=#5184F3;strokeColor=none;shape=mxgraph.gcp2.hexIcon;prIcon=container_engine;part=1;labelPosition=right;verticalLabelPosition=middle;align=left;verticalAlign=middle;spacingLeft=5;fontColor=#999999;fontSize=12;" vertex="1" parent="3G7S71GiZPw67ylA6irI-1065">
          <mxGeometry y="0.5" width="44" height="39" relative="1" as="geometry">
            <mxPoint x="5" y="-19.5" as="offset"/>
          </mxGeometry>
        </mxCell>
        <mxCell id="3G7S71GiZPw67ylA6irI-1079" style="edgeStyle=orthogonalEdgeStyle;rounded=0;orthogonalLoop=1;jettySize=auto;html=1;exitX=0.25;exitY=0;exitDx=0;exitDy=0;entryX=1;entryY=0.5;entryDx=0;entryDy=0;strokeColor=#FF6666;strokeWidth=2;" edge="1" parent="14" source="3G7S71GiZPw67ylA6irI-1069" target="3G7S71GiZPw67ylA6irI-1036">
          <mxGeometry relative="1" as="geometry"/>
        </mxCell>
        <mxCell id="3G7S71GiZPw67ylA6irI-1069" value="" style="strokeColor=#dddddd;fillColor=#ffffff;shadow=1;strokeWidth=1;rounded=1;absoluteArcSize=1;arcSize=2;" vertex="1" parent="14">
          <mxGeometry x="790" y="549" width="110" height="60" as="geometry"/>
        </mxCell>
        <mxCell id="3G7S71GiZPw67ylA6irI-1070" value="Cloud&#xa;Pub/Sub" style="dashed=0;connectable=0;html=1;fillColor=#5184F3;strokeColor=none;shape=mxgraph.gcp2.hexIcon;prIcon=cloud_pubsub;part=1;labelPosition=right;verticalLabelPosition=middle;align=left;verticalAlign=middle;spacingLeft=5;fontColor=#999999;fontSize=12;" vertex="1" parent="3G7S71GiZPw67ylA6irI-1069">
          <mxGeometry y="0.5" width="44" height="39" relative="1" as="geometry">
            <mxPoint x="5" y="-19.5" as="offset"/>
          </mxGeometry>
        </mxCell>
        <mxCell id="3G7S71GiZPw67ylA6irI-1060" style="edgeStyle=orthogonalEdgeStyle;rounded=0;orthogonalLoop=1;jettySize=auto;html=1;entryX=0;entryY=0.5;entryDx=0;entryDy=0;strokeColor=#4284F3;strokeWidth=2;" edge="1" parent="14" source="3G7S71GiZPw67ylA6irI-1038" target="3G7S71GiZPw67ylA6irI-1051">
          <mxGeometry relative="1" as="geometry"/>
        </mxCell>
        <mxCell id="3G7S71GiZPw67ylA6irI-1038" value="" style="shape=mxgraph.gcp2.doubleRect;strokeColor=#dddddd;fillColor=#ffffff;shadow=1;strokeWidth=1;" vertex="1" parent="14">
          <mxGeometry x="610" y="342" width="178" height="68" as="geometry"/>
        </mxCell>
        <mxCell id="3G7S71GiZPw67ylA6irI-1039" value="&lt;font color=&quot;#000000&quot;&gt;Banking System App&lt;/font&gt;&lt;br&gt;Kubernetes Engine" style="dashed=0;connectable=0;html=1;fillColor=#5184F3;strokeColor=none;shape=mxgraph.gcp2.hexIcon;prIcon=container_engine;part=1;labelPosition=right;verticalLabelPosition=middle;align=left;verticalAlign=middle;spacingLeft=5;fontColor=#999999;fontSize=12;" vertex="1" parent="3G7S71GiZPw67ylA6irI-1038">
          <mxGeometry y="0.5" width="44" height="39" relative="1" as="geometry">
            <mxPoint x="5" y="-19.5" as="offset"/>
          </mxGeometry>
        </mxCell>
        <mxCell id="3G7S71GiZPw67ylA6irI-1078" style="edgeStyle=orthogonalEdgeStyle;rounded=0;orthogonalLoop=1;jettySize=auto;html=1;strokeColor=#FF6666;strokeWidth=2;" edge="1" parent="14" source="3G7S71GiZPw67ylA6irI-1076">
          <mxGeometry relative="1" as="geometry">
            <mxPoint x="900" y="579" as="targetPoint"/>
          </mxGeometry>
        </mxCell>
        <mxCell id="997" value="Clients&lt;br&gt;API Requests" style="rounded=1;absoluteArcSize=1;arcSize=2;html=1;strokeColor=none;gradientColor=none;shadow=0;dashed=0;fontSize=12;fontColor=#9E9E9E;align=left;verticalAlign=top;spacing=10;spacingTop=-4;fillColor=#F1F8E9;" parent="1" vertex="1">
          <mxGeometry x="170" y="185" width="90" height="230" as="geometry"/>
        </mxCell>
        <mxCell id="818" value="Architecture: Moonbank core banking" style="fillColor=#4DA1F5;strokeColor=none;shadow=1;gradientColor=none;fontSize=14;align=left;spacingLeft=50;fontColor=#ffffff;html=1;" parent="1" vertex="1">
          <mxGeometry x="260" y="40" width="1180" height="40" as="geometry"/>
        </mxCell>
        <mxCell id="998" style="edgeStyle=elbowEdgeStyle;rounded=0;elbow=vertical;html=1;labelBackgroundColor=none;startFill=1;startSize=4;endArrow=blockThin;endFill=1;endSize=4;jettySize=auto;orthogonalLoop=1;strokeColor=#4284F3;strokeWidth=2;fontSize=12;fontColor=#000000;align=left;dashed=0;entryX=-0.002;entryY=0.563;entryDx=0;entryDy=0;entryPerimeter=0;" parent="1" source="997" target="3G7S71GiZPw67ylA6irI-1024" edge="1">
          <mxGeometry relative="1" as="geometry"/>
        </mxCell>
        <mxCell id="987" value="" style="strokeColor=#dddddd;fillColor=#ffffff;shadow=1;strokeWidth=1;rounded=1;absoluteArcSize=1;arcSize=2;labelPosition=center;verticalLabelPosition=middle;align=center;verticalAlign=bottom;spacingLeft=0;fontColor=#999999;fontSize=12;whiteSpace=wrap;spacingBottom=2;html=1;" parent="1" vertex="1">
          <mxGeometry x="180" y="315" width="70" height="70" as="geometry"/>
        </mxCell>
        <mxCell id="988" value="" style="dashed=0;connectable=0;html=1;fillColor=#757575;strokeColor=none;shape=mxgraph.gcp2.laptop;part=1;" parent="987" vertex="1">
          <mxGeometry x="0.5" width="50" height="33" relative="1" as="geometry">
            <mxPoint x="-25" y="18.5" as="offset"/>
          </mxGeometry>
        </mxCell>
        <mxCell id="1000" style="edgeStyle=orthogonalEdgeStyle;rounded=0;elbow=vertical;html=1;labelBackgroundColor=none;startFill=1;startSize=4;endArrow=blockThin;endFill=1;endSize=4;jettySize=auto;orthogonalLoop=1;strokeColor=#4284F3;strokeWidth=2;fontSize=12;fontColor=#000000;align=left;dashed=0;entryX=-0.006;entryY=0.444;entryDx=0;entryDy=0;entryPerimeter=0;" parent="1" source="989" target="3G7S71GiZPw67ylA6irI-1124" edge="1">
          <mxGeometry relative="1" as="geometry">
            <mxPoint x="750" y="300" as="targetPoint"/>
            <Array as="points">
              <mxPoint x="720" y="325"/>
              <mxPoint x="720" y="300"/>
            </Array>
          </mxGeometry>
        </mxCell>
        <mxCell id="3G7S71GiZPw67ylA6irI-1067" style="edgeStyle=orthogonalEdgeStyle;rounded=0;orthogonalLoop=1;jettySize=auto;html=1;entryX=-0.001;entryY=0.426;entryDx=0;entryDy=0;strokeColor=#4284F3;strokeWidth=2;exitX=1.005;exitY=0.61;exitDx=0;exitDy=0;exitPerimeter=0;entryPerimeter=0;" edge="1" parent="1" source="989" target="3G7S71GiZPw67ylA6irI-1130">
          <mxGeometry relative="1" as="geometry">
            <Array as="points">
              <mxPoint x="720" y="327"/>
              <mxPoint x="720" y="566"/>
              <mxPoint x="770" y="566"/>
              <mxPoint x="770" y="569"/>
            </Array>
          </mxGeometry>
        </mxCell>
        <mxCell id="3G7S71GiZPw67ylA6irI-1137" style="edgeStyle=orthogonalEdgeStyle;rounded=0;orthogonalLoop=1;jettySize=auto;html=1;entryX=0;entryY=0.5;entryDx=0;entryDy=0;strokeColor=#4284F3;strokeWidth=2;" edge="1" parent="1" source="989" target="3G7S71GiZPw67ylA6irI-1126">
          <mxGeometry relative="1" as="geometry">
            <Array as="points">
              <mxPoint x="720" y="330"/>
              <mxPoint x="720" y="388"/>
            </Array>
          </mxGeometry>
        </mxCell>
        <mxCell id="3G7S71GiZPw67ylA6irI-1138" style="edgeStyle=orthogonalEdgeStyle;rounded=0;orthogonalLoop=1;jettySize=auto;html=1;entryX=0;entryY=0.5;entryDx=0;entryDy=0;strokeColor=#4284F3;strokeWidth=2;" edge="1" parent="1" source="989" target="3G7S71GiZPw67ylA6irI-1128">
          <mxGeometry relative="1" as="geometry">
            <Array as="points">
              <mxPoint x="720" y="320"/>
              <mxPoint x="720" y="476"/>
            </Array>
          </mxGeometry>
        </mxCell>
        <mxCell id="989" value="" style="strokeColor=#dddddd;fillColor=#ffffff;shadow=1;strokeWidth=1;rounded=1;absoluteArcSize=1;arcSize=2;fontSize=11;fontColor=#9E9E9E;align=center;html=1;" parent="1" vertex="1">
          <mxGeometry x="580" y="290" width="120" height="60" as="geometry"/>
        </mxCell>
        <mxCell id="990" value="Cloud Load&#xa;Balancing" style="dashed=0;connectable=0;html=1;fillColor=#5184F3;strokeColor=none;shape=mxgraph.gcp2.hexIcon;prIcon=cloud_load_balancing;part=1;labelPosition=right;verticalLabelPosition=middle;align=left;verticalAlign=middle;spacingLeft=5;fontColor=#999999;fontSize=12;" parent="989" vertex="1">
          <mxGeometry y="0.5" width="44" height="39" relative="1" as="geometry">
            <mxPoint x="5" y="-19.5" as="offset"/>
          </mxGeometry>
        </mxCell>
        <mxCell id="3G7S71GiZPw67ylA6irI-1007" style="edgeStyle=orthogonalEdgeStyle;rounded=0;orthogonalLoop=1;jettySize=auto;html=1;entryX=0;entryY=0.5;entryDx=0;entryDy=0;strokeColor=#4284F3;strokeWidth=2;" edge="1" parent="1" source="3G7S71GiZPw67ylA6irI-1002" target="989">
          <mxGeometry relative="1" as="geometry"/>
        </mxCell>
        <mxCell id="3G7S71GiZPw67ylA6irI-1026" style="edgeStyle=orthogonalEdgeStyle;rounded=0;orthogonalLoop=1;jettySize=auto;html=1;entryX=0;entryY=0.5;entryDx=0;entryDy=0;strokeColor=#4284F3;strokeWidth=2;" edge="1" parent="1" source="3G7S71GiZPw67ylA6irI-1024" target="3G7S71GiZPw67ylA6irI-1002">
          <mxGeometry relative="1" as="geometry"/>
        </mxCell>
        <mxCell id="3G7S71GiZPw67ylA6irI-1027" style="edgeStyle=orthogonalEdgeStyle;rounded=0;orthogonalLoop=1;jettySize=auto;html=1;entryX=0.5;entryY=0;entryDx=0;entryDy=0;strokeColor=#4284F3;strokeWidth=2;" edge="1" parent="1" source="3G7S71GiZPw67ylA6irI-1024" target="989">
          <mxGeometry relative="1" as="geometry">
            <Array as="points">
              <mxPoint x="410" y="321"/>
              <mxPoint x="410" y="270"/>
              <mxPoint x="640" y="270"/>
            </Array>
          </mxGeometry>
        </mxCell>
        <mxCell id="3G7S71GiZPw67ylA6irI-1024" value="" style="strokeColor=#dddddd;fillColor=#ffffff;shadow=1;strokeWidth=1;rounded=1;absoluteArcSize=1;arcSize=2;" vertex="1" parent="1">
          <mxGeometry x="280" y="291" width="100" height="60" as="geometry"/>
        </mxCell>
        <mxCell id="3G7S71GiZPw67ylA6irI-1025" value="Cloud &#xa;DNS" style="dashed=0;connectable=0;html=1;fillColor=#5184F3;strokeColor=none;shape=mxgraph.gcp2.hexIcon;prIcon=cloud_dns;part=1;labelPosition=right;verticalLabelPosition=middle;align=left;verticalAlign=middle;spacingLeft=5;fontColor=#999999;fontSize=12;" vertex="1" parent="3G7S71GiZPw67ylA6irI-1024">
          <mxGeometry y="0.5" width="44" height="39" relative="1" as="geometry">
            <mxPoint x="5" y="-19.5" as="offset"/>
          </mxGeometry>
        </mxCell>
        <mxCell id="3G7S71GiZPw67ylA6irI-1081" style="edgeStyle=orthogonalEdgeStyle;rounded=0;orthogonalLoop=1;jettySize=auto;html=1;entryX=0.5;entryY=1;entryDx=0;entryDy=0;strokeColor=#4284F3;strokeWidth=2;" edge="1" parent="1" source="3G7S71GiZPw67ylA6irI-1062" target="989">
          <mxGeometry relative="1" as="geometry"/>
        </mxCell>
        <mxCell id="3G7S71GiZPw67ylA6irI-1062" value="Customer Service&lt;br&gt;Officer Back End" style="points=[[0,0,0],[0.25,0,0],[0.5,0,0],[0.75,0,0],[1,0,0],[1,0.25,0],[1,0.5,0],[1,0.75,0],[1,1,0],[0.75,1,0],[0.5,1,0],[0.25,1,0],[0,1,0],[0,0.75,0],[0,0.5,0],[0,0.25,0]];rounded=1;absoluteArcSize=1;arcSize=2;html=1;strokeColor=none;gradientColor=none;shadow=0;dashed=0;fontSize=12;fontColor=#9E9E9E;align=left;verticalAlign=top;spacing=10;spacingTop=-4;fillColor=#F1F8E9;" vertex="1" parent="1">
          <mxGeometry x="170" y="450" width="110" height="180" as="geometry"/>
        </mxCell>
        <mxCell id="3G7S71GiZPw67ylA6irI-1063" value="" style="strokeColor=#dddddd;fillColor=#ffffff;shadow=1;strokeWidth=1;rounded=1;absoluteArcSize=1;arcSize=2;labelPosition=center;verticalLabelPosition=middle;align=center;verticalAlign=bottom;spacingLeft=0;fontColor=#999999;fontSize=12;whiteSpace=wrap;spacingBottom=2;html=1;" vertex="1" parent="1">
          <mxGeometry x="190" y="520" width="70" height="70" as="geometry"/>
        </mxCell>
        <mxCell id="3G7S71GiZPw67ylA6irI-1064" value="" style="dashed=0;connectable=0;html=1;fillColor=#757575;strokeColor=none;shape=mxgraph.gcp2.laptop;part=1;" vertex="1" parent="3G7S71GiZPw67ylA6irI-1063">
          <mxGeometry x="0.5" width="50" height="33" relative="1" as="geometry">
            <mxPoint x="-25" y="18.5" as="offset"/>
          </mxGeometry>
        </mxCell>
        <mxCell id="3G7S71GiZPw67ylA6irI-1089" value="&lt;b&gt;Google &lt;/b&gt;Cloud Platform" style="fillColor=#F6F6F6;strokeColor=none;shadow=0;gradientColor=none;fontSize=14;align=left;spacing=10;fontColor=#717171;9E9E9E;verticalAlign=top;spacingTop=-4;fontStyle=0;spacingLeft=40;html=1;" vertex="1" parent="1">
          <mxGeometry x="390" y="750" width="1080" height="120" as="geometry"/>
        </mxCell>
        <mxCell id="3G7S71GiZPw67ylA6irI-1090" value="" style="shape=mxgraph.gcp2.google_cloud_platform;fillColor=#F6F6F6;strokeColor=none;shadow=0;gradientColor=none;" vertex="1" parent="3G7S71GiZPw67ylA6irI-1089">
          <mxGeometry width="23" height="20" relative="1" as="geometry">
            <mxPoint x="20" y="10" as="offset"/>
          </mxGeometry>
        </mxCell>
        <mxCell id="3G7S71GiZPw67ylA6irI-1084" value="Cloud IAM" style="html=1;fillColor=#5184F3;strokeColor=none;verticalAlign=top;labelPosition=center;verticalLabelPosition=bottom;align=center;spacingTop=-6;fontSize=11;fontStyle=1;fontColor=#999999;shape=mxgraph.gcp2.hexIcon;prIcon=cloud_iam" vertex="1" parent="3G7S71GiZPw67ylA6irI-1089">
          <mxGeometry x="91.91489361702128" y="31" width="75.82978723404254" height="58.5" as="geometry"/>
        </mxCell>
        <mxCell id="3G7S71GiZPw67ylA6irI-1085" value="Key&#xa;Management&#xa;Service" style="html=1;fillColor=#5184F3;strokeColor=none;verticalAlign=top;labelPosition=center;verticalLabelPosition=bottom;align=center;spacingTop=-6;fontSize=11;fontStyle=1;fontColor=#999999;shape=mxgraph.gcp2.hexIcon;prIcon=key_management_service" vertex="1" parent="3G7S71GiZPw67ylA6irI-1089">
          <mxGeometry x="248.7446808510638" y="31" width="75.82978723404254" height="58.5" as="geometry"/>
        </mxCell>
        <mxCell id="3G7S71GiZPw67ylA6irI-1086" value="Stackdriver" style="html=1;fillColor=#5184F3;strokeColor=none;verticalAlign=top;labelPosition=center;verticalLabelPosition=bottom;align=center;spacingTop=-6;fontSize=11;fontStyle=1;fontColor=#999999;shape=mxgraph.gcp2.hexIcon;prIcon=stackdriver" vertex="1" parent="3G7S71GiZPw67ylA6irI-1089">
          <mxGeometry x="674.4255319148936" y="31" width="75.82978723404254" height="58.5" as="geometry"/>
        </mxCell>
        <mxCell id="3G7S71GiZPw67ylA6irI-1087" value="Monitoring" style="html=1;fillColor=#5184F3;strokeColor=none;verticalAlign=top;labelPosition=center;verticalLabelPosition=bottom;align=center;spacingTop=-6;fontSize=11;fontStyle=1;fontColor=#999999;shape=mxgraph.gcp2.hexIcon;prIcon=cloud_deployment_manager" vertex="1" parent="3G7S71GiZPw67ylA6irI-1089">
          <mxGeometry x="394.65957446808505" y="31" width="75.82978723404254" height="58.5" as="geometry"/>
        </mxCell>
        <mxCell id="3G7S71GiZPw67ylA6irI-1088" value="Logging" style="html=1;fillColor=#5184F3;strokeColor=none;verticalAlign=top;labelPosition=center;verticalLabelPosition=bottom;align=center;spacingTop=-6;fontSize=11;fontStyle=1;fontColor=#999999;shape=mxgraph.gcp2.hexIcon;prIcon=logging" vertex="1" parent="3G7S71GiZPw67ylA6irI-1089">
          <mxGeometry x="540" y="31" width="75.82978723404254" height="58.5" as="geometry"/>
        </mxCell>
        <mxCell id="3G7S71GiZPw67ylA6irI-1135" style="edgeStyle=orthogonalEdgeStyle;rounded=0;orthogonalLoop=1;jettySize=auto;html=1;entryX=0;entryY=0.5;entryDx=0;entryDy=0;strokeColor=#4284F3;strokeWidth=2;" edge="1" parent="1" source="3G7S71GiZPw67ylA6irI-1124" target="3G7S71GiZPw67ylA6irI-1053">
          <mxGeometry relative="1" as="geometry"/>
        </mxCell>
        <mxCell id="3G7S71GiZPw67ylA6irI-1124" value="" style="shape=mxgraph.gcp2.doubleRect;strokeColor=#dddddd;fillColor=#ffffff;shadow=1;strokeWidth=1;" vertex="1" parent="1">
          <mxGeometry x="776" y="270" width="178" height="68" as="geometry"/>
        </mxCell>
        <mxCell id="3G7S71GiZPw67ylA6irI-1125" value="&lt;font color=&quot;#000000&quot;&gt;&lt;span&gt;CRM System Web&lt;/span&gt;&lt;/font&gt;&lt;br&gt;Kubernetes Engine" style="dashed=0;connectable=0;html=1;fillColor=#5184F3;strokeColor=none;shape=mxgraph.gcp2.hexIcon;prIcon=container_engine;part=1;labelPosition=right;verticalLabelPosition=middle;align=left;verticalAlign=middle;spacingLeft=5;fontColor=#999999;fontSize=12;" vertex="1" parent="3G7S71GiZPw67ylA6irI-1124">
          <mxGeometry y="0.5" width="44" height="39" relative="1" as="geometry">
            <mxPoint x="5" y="-19.5" as="offset"/>
          </mxGeometry>
        </mxCell>
        <mxCell id="3G7S71GiZPw67ylA6irI-1134" style="edgeStyle=orthogonalEdgeStyle;rounded=0;orthogonalLoop=1;jettySize=auto;html=1;entryX=0;entryY=0.5;entryDx=0;entryDy=0;strokeColor=#4284F3;strokeWidth=2;" edge="1" parent="1" source="3G7S71GiZPw67ylA6irI-1126" target="3G7S71GiZPw67ylA6irI-1036">
          <mxGeometry relative="1" as="geometry"/>
        </mxCell>
        <mxCell id="3G7S71GiZPw67ylA6irI-1126" value="" style="shape=mxgraph.gcp2.doubleRect;strokeColor=#dddddd;fillColor=#ffffff;shadow=1;strokeWidth=1;" vertex="1" parent="1">
          <mxGeometry x="776" y="354" width="178" height="68" as="geometry"/>
        </mxCell>
        <mxCell id="3G7S71GiZPw67ylA6irI-1127" value="&lt;font color=&quot;#000000&quot;&gt;&lt;span&gt;Payment Web&lt;/span&gt;&lt;/font&gt;&lt;br&gt;Kubernetes Engine" style="dashed=0;connectable=0;html=1;fillColor=#5184F3;strokeColor=none;shape=mxgraph.gcp2.hexIcon;prIcon=container_engine;part=1;labelPosition=right;verticalLabelPosition=middle;align=left;verticalAlign=middle;spacingLeft=5;fontColor=#999999;fontSize=12;" vertex="1" parent="3G7S71GiZPw67ylA6irI-1126">
          <mxGeometry y="0.5" width="44" height="39" relative="1" as="geometry">
            <mxPoint x="5" y="-19.5" as="offset"/>
          </mxGeometry>
        </mxCell>
        <mxCell id="3G7S71GiZPw67ylA6irI-1133" style="edgeStyle=orthogonalEdgeStyle;rounded=0;orthogonalLoop=1;jettySize=auto;html=1;entryX=0;entryY=0.5;entryDx=0;entryDy=0;strokeColor=#4284F3;strokeWidth=2;" edge="1" parent="1" source="3G7S71GiZPw67ylA6irI-1128" target="3G7S71GiZPw67ylA6irI-1038">
          <mxGeometry relative="1" as="geometry"/>
        </mxCell>
        <mxCell id="3G7S71GiZPw67ylA6irI-1128" value="" style="shape=mxgraph.gcp2.doubleRect;strokeColor=#dddddd;fillColor=#ffffff;shadow=1;strokeWidth=1;" vertex="1" parent="1">
          <mxGeometry x="776" y="442" width="178" height="68" as="geometry"/>
        </mxCell>
        <mxCell id="3G7S71GiZPw67ylA6irI-1129" value="&lt;font color=&quot;#000000&quot;&gt;Banking System Web&lt;/font&gt;&lt;br&gt;Kubernetes Engine" style="dashed=0;connectable=0;html=1;fillColor=#5184F3;strokeColor=none;shape=mxgraph.gcp2.hexIcon;prIcon=container_engine;part=1;labelPosition=right;verticalLabelPosition=middle;align=left;verticalAlign=middle;spacingLeft=5;fontColor=#999999;fontSize=12;" vertex="1" parent="3G7S71GiZPw67ylA6irI-1128">
          <mxGeometry y="0.5" width="44" height="39" relative="1" as="geometry">
            <mxPoint x="5" y="-19.5" as="offset"/>
          </mxGeometry>
        </mxCell>
        <mxCell id="3G7S71GiZPw67ylA6irI-1132" style="edgeStyle=orthogonalEdgeStyle;rounded=0;orthogonalLoop=1;jettySize=auto;html=1;entryX=-0.006;entryY=0.562;entryDx=0;entryDy=0;entryPerimeter=0;strokeColor=#4284F3;strokeWidth=2;" edge="1" parent="1" source="3G7S71GiZPw67ylA6irI-1130" target="3G7S71GiZPw67ylA6irI-1065">
          <mxGeometry relative="1" as="geometry"/>
        </mxCell>
        <mxCell id="3G7S71GiZPw67ylA6irI-1130" value="" style="shape=mxgraph.gcp2.doubleRect;strokeColor=#dddddd;fillColor=#ffffff;shadow=1;strokeWidth=1;" vertex="1" parent="1">
          <mxGeometry x="776" y="540" width="178" height="68" as="geometry"/>
        </mxCell>
        <mxCell id="3G7S71GiZPw67ylA6irI-1131" value="&lt;font color=&quot;#000000&quot;&gt;&lt;span&gt;Customer Service Web&lt;/span&gt;&lt;/font&gt;&lt;br&gt;Kubernetes Engine" style="dashed=0;connectable=0;html=1;fillColor=#5184F3;strokeColor=none;shape=mxgraph.gcp2.hexIcon;prIcon=container_engine;part=1;labelPosition=right;verticalLabelPosition=middle;align=left;verticalAlign=middle;spacingLeft=5;fontColor=#999999;fontSize=12;" vertex="1" parent="3G7S71GiZPw67ylA6irI-1130">
          <mxGeometry y="0.5" width="44" height="39" relative="1" as="geometry">
            <mxPoint x="5" y="-19.5" as="offset"/>
          </mxGeometry>
        </mxCell>
        <mxCell id="3G7S71GiZPw67ylA6irI-1139" value="" style="strokeColor=#dddddd;fillColor=#ffffff;shadow=1;strokeWidth=1;rounded=1;absoluteArcSize=1;arcSize=2;" vertex="1" parent="1">
          <mxGeometry x="600" y="140" width="180" height="60" as="geometry"/>
        </mxCell>
        <mxCell id="3G7S71GiZPw67ylA6irI-1140" value="&lt;font color=&quot;#000000&quot;&gt;&lt;span&gt;External VPC&lt;/span&gt;&lt;/font&gt;&lt;br&gt;Virtual Private Cloud" style="dashed=0;connectable=0;html=1;fillColor=#5184F3;strokeColor=none;shape=mxgraph.gcp2.hexIcon;prIcon=virtual_private_cloud;part=1;labelPosition=right;verticalLabelPosition=middle;align=left;verticalAlign=middle;spacingLeft=5;fontColor=#999999;fontSize=12;" vertex="1" parent="3G7S71GiZPw67ylA6irI-1139">
          <mxGeometry y="0.5" width="44" height="39" relative="1" as="geometry">
            <mxPoint x="5" y="-19.5" as="offset"/>
          </mxGeometry>
        </mxCell>
        <mxCell id="3G7S71GiZPw67ylA6irI-1076" value="External &lt;br&gt;Trade &lt;br&gt;System" style="points=[[0,0,0],[0.25,0,0],[0.5,0,0],[0.75,0,0],[1,0,0],[1,0.25,0],[1,0.5,0],[1,0.75,0],[1,1,0],[0.75,1,0],[0.5,1,0],[0.25,1,0],[0,1,0],[0,0.75,0],[0,0.5,0],[0,0.25,0]];rounded=1;absoluteArcSize=1;arcSize=2;html=1;strokeColor=none;gradientColor=none;shadow=0;dashed=0;fontSize=12;fontColor=#9E9E9E;align=left;verticalAlign=top;spacing=10;spacingTop=-4;fillColor=#FFEBEE;" vertex="1" parent="1">
          <mxGeometry x="1560" y="650" width="120" height="70" as="geometry"/>
        </mxCell>
        <mxCell id="3G7S71GiZPw67ylA6irI-1077" style="edgeStyle=orthogonalEdgeStyle;rounded=0;orthogonalLoop=1;jettySize=auto;html=1;entryX=0;entryY=0.5;entryDx=0;entryDy=0;entryPerimeter=0;strokeColor=#FF6666;strokeWidth=2;" edge="1" parent="1" source="3G7S71GiZPw67ylA6irI-1069" target="3G7S71GiZPw67ylA6irI-1076">
          <mxGeometry relative="1" as="geometry"/>
        </mxCell>
        <mxCell id="3G7S71GiZPw67ylA6irI-1145" value="" style="strokeColor=#dddddd;fillColor=#ffffff;shadow=1;strokeWidth=1;rounded=1;absoluteArcSize=1;arcSize=2;" vertex="1" parent="1">
          <mxGeometry x="1120" y="140" width="180" height="60" as="geometry"/>
        </mxCell>
        <mxCell id="3G7S71GiZPw67ylA6irI-1146" value="&lt;font color=&quot;#000000&quot;&gt;&lt;span&gt;Internal VPC&lt;/span&gt;&lt;/font&gt;&lt;br&gt;Virtual Private Cloud" style="dashed=0;connectable=0;html=1;fillColor=#5184F3;strokeColor=none;shape=mxgraph.gcp2.hexIcon;prIcon=virtual_private_cloud;part=1;labelPosition=right;verticalLabelPosition=middle;align=left;verticalAlign=middle;spacingLeft=5;fontColor=#999999;fontSize=12;" vertex="1" parent="3G7S71GiZPw67ylA6irI-1145">
          <mxGeometry y="0.5" width="44" height="39" relative="1" as="geometry">
            <mxPoint x="5" y="-19.5" as="offset"/>
          </mxGeometry>
        </mxCell>
      </root>
    </mxGraphModel>
  </diagram>
</mxfile>
